<svg preserveAspectRatio="none" width="100%" height="100%" overflow="visible" style="display: block;" viewBox="0 0 15 15.625" fill="none" xmlns="http://www.w3.org/2000/svg">
<path id="Vector" opacity="0.2" d="M15 7.5C13.4301 7.50296 11.8992 7.01089 10.625 6.09375V10.3125C10.625 11.7215 10.0653 13.0727 9.06901 14.069C8.07272 15.0653 6.72146 15.625 5.3125 15.625C3.90354 15.625 2.55228 15.0653 1.556 14.069C0.559708 13.0727 0 11.7215 0 10.3125C0 7.69844 1.88828 5.44297 4.375 5V8.33516C4.02134 8.50291 3.71917 8.76249 3.50001 9.08682C3.28085 9.41115 3.15273 9.78834 3.12902 10.1791C3.1053 10.5698 3.18686 10.9597 3.36519 11.3081C3.54351 11.6566 3.81207 11.9508 4.14284 12.1601C4.47362 12.3694 4.8545 12.4861 5.24575 12.4981C5.637 12.51 6.02428 12.4167 6.36721 12.228C6.71014 12.0393 6.99614 11.762 7.19539 11.4251C7.39464 11.0881 7.49984 10.7039 7.5 10.3125V0H10.625C10.625 1.16032 11.0859 2.27312 11.9064 3.09359C12.7269 3.91406 13.8397 4.375 15 4.375V7.5Z" fill="var(--fill-0, white)"/>
</svg>
