<svg preserveAspectRatio="none" width="100%" height="100%" overflow="visible" style="display: block;" viewBox="0 0 16.25 16.875" fill="none" xmlns="http://www.w3.org/2000/svg">
<path id="Vector" d="M15.625 4.375C14.6308 4.37397 13.6775 3.97855 12.9745 3.27551C12.2715 2.57247 11.876 1.61924 11.875 0.625C11.875 0.45924 11.8092 0.300268 11.6919 0.183058C11.5747 0.065848 11.4158 0 11.25 0H8.125C7.95924 0 7.80027 0.065848 7.68306 0.183058C7.56585 0.300268 7.5 0.45924 7.5 0.625V10.9375C7.49987 11.2171 7.42472 11.4915 7.28239 11.7322C7.14006 11.9729 6.93576 12.1709 6.6908 12.3057C6.44584 12.4405 6.1692 12.5071 5.88974 12.4986C5.61027 12.49 5.33822 12.4066 5.10195 12.2571C4.86569 12.1076 4.67388 11.8974 4.54652 11.6485C4.41916 11.3996 4.36092 11.1211 4.37788 10.842C4.39483 10.5629 4.48637 10.2935 4.64293 10.0619C4.79949 9.83021 5.01534 9.64481 5.26797 9.525C5.37483 9.47428 5.46511 9.39429 5.52831 9.2943C5.59151 9.19431 5.62504 9.07844 5.625 8.96016V5.625C5.62504 5.53364 5.60505 5.44338 5.56644 5.36058C5.52783 5.27778 5.47153 5.20446 5.40152 5.14576C5.3315 5.08707 5.24947 5.04444 5.16121 5.02088C5.07294 4.99731 4.98058 4.99339 4.89062 5.00938C2.10234 5.50625 0 8.05469 0 10.9375C0 12.5122 0.625556 14.0224 1.73905 15.1359C2.85255 16.2494 4.36278 16.875 5.9375 16.875C7.51222 16.875 9.02245 16.2494 10.1359 15.1359C11.2494 14.0224 11.875 12.5122 11.875 10.9375V7.83516C13.0325 8.4391 14.3194 8.75303 15.625 8.75C15.7908 8.75 15.9497 8.68415 16.0669 8.56694C16.1842 8.44973 16.25 8.29076 16.25 8.125V5C16.25 4.83424 16.1842 4.67527 16.0669 4.55806C15.9497 4.44085 15.7908 4.375 15.625 4.375ZM15 7.47187C13.7786 7.36365 12.6091 6.92774 11.6148 6.21016C11.5214 6.14297 11.4112 6.10289 11.2964 6.09434C11.1816 6.08579 11.0667 6.1091 10.9644 6.1617C10.862 6.2143 10.7761 6.29415 10.7162 6.39244C10.6564 6.49074 10.6248 6.60365 10.625 6.71875V10.9375C10.625 12.1807 10.1311 13.373 9.25206 14.2521C8.37299 15.1311 7.1807 15.625 5.9375 15.625C4.6943 15.625 3.50201 15.1311 2.62294 14.2521C1.74386 13.373 1.25 12.1807 1.25 10.9375C1.25 8.91406 2.55 7.09922 4.375 6.4375V8.59922C3.97098 8.86917 3.64378 9.23919 3.42531 9.67321C3.20684 10.1072 3.10454 10.5905 3.12839 11.0758C3.15224 11.5611 3.30141 12.032 3.56138 12.4425C3.82135 12.853 4.18325 13.1892 4.61179 13.4182C5.04033 13.6472 5.5209 13.7614 6.00666 13.7494C6.49242 13.7375 6.9668 13.5999 7.38357 13.35C7.80033 13.1002 8.14525 12.7466 8.38473 12.3238C8.6242 11.901 8.75004 11.4234 8.75 10.9375V1.25H10.6641C10.8046 2.35085 11.3066 3.37389 12.0914 4.15862C12.8761 4.94335 13.8992 5.44538 15 5.58594V7.47187Z" fill="var(--fill-0, white)"/>
</svg>
