<svg preserveAspectRatio="none" width="100%" height="100%" overflow="visible" style="display: block;" viewBox="0 0 16.087 16.0213" fill="none" xmlns="http://www.w3.org/2000/svg">
<g id="Group">
<path id="Vector" d="M8.04356 11.3467C9.92152 11.3467 11.4439 9.82428 11.4439 7.94632C11.4439 6.06837 9.92152 4.54598 8.04356 4.54598C6.1656 4.54598 4.64322 6.06837 4.64322 7.94632C4.64322 9.82428 6.1656 11.3467 8.04356 11.3467Z" stroke="var(--stroke-0, white)" stroke-width="1.52145"/>
<path id="Vector_2" d="M11.3202 0.770778H4.76678C2.55985 0.770778 0.770778 2.55985 0.770778 4.76678V11.2545C0.770778 13.4614 2.55985 15.2505 4.76678 15.2505H11.3202C13.5272 15.2505 15.3162 13.4614 15.3162 11.2545V4.76678C15.3162 2.55985 13.5272 0.770778 11.3202 0.770778Z" stroke="var(--stroke-0, white)" stroke-width="1.54156"/>
<path id="Vector_3" d="M12.3708 4.73523C12.9044 4.73523 13.3369 4.30271 13.3369 3.76916C13.3369 3.23562 12.9044 2.8031 12.3708 2.8031C11.8373 2.8031 11.4048 3.23562 11.4048 3.76916C11.4048 4.30271 11.8373 4.73523 12.3708 4.73523Z" fill="var(--fill-0, white)"/>
</g>
</svg>
