<svg preserveAspectRatio="none" width="100%" height="100%" overflow="visible" style="display: block;" viewBox="0 0 17.4545 19.8519" fill="none" xmlns="http://www.w3.org/2000/svg">
<g id="Group 1">
<path id="Vector" fill-rule="evenodd" clip-rule="evenodd" d="M12.0499 1.11457C11.9658 0.757064 11.9027 0.378532 11.9027 0H8.7483V6.30887V7.33932V12.7439C8.7483 14.216 7.48653 15.4147 6.01446 15.4147C4.54239 15.4147 3.36473 14.237 3.36473 12.7649C3.36473 11.2929 4.56342 10.0942 6.03549 10.0942C6.3299 10.0942 6.60329 10.1363 6.87667 10.2204V6.79255C6.60329 6.75049 6.3299 6.72946 6.03549 6.72946C2.69179 6.72946 0 9.42125 0 12.7649C0 16.0876 2.69179 18.8004 6.03549 18.8004C9.3161 18.8004 12.0499 16.1717 12.1341 12.9122V12.7649V6.37196C13.3748 7.21314 14.8048 7.71785 16.4031 7.71785V4.4793C14.3211 4.4793 12.5547 3.04929 12.0499 1.11457Z" fill="var(--fill-0, #25F4EE)"/>
<path id="Vector_2" fill-rule="evenodd" clip-rule="evenodd" d="M13.1014 2.16604C13.0173 1.80854 12.9542 1.43 12.9542 1.05147H9.79978V7.36034V8.39079V13.7954C9.79978 15.2675 8.53801 16.4661 7.06594 16.4661C5.59387 16.4661 4.41621 15.2885 4.41621 13.8164C4.41621 12.3444 5.6149 11.1457 7.08697 11.1457C7.38138 11.1457 7.65477 11.1877 7.92815 11.2718V7.84402C7.65477 7.80196 7.38138 7.78093 7.08697 7.78093C3.74327 7.78093 1.05148 10.4727 1.05148 13.8164C1.05148 17.1391 3.74327 19.8519 7.08697 19.8519C10.3676 19.8519 13.1014 17.2232 13.1855 13.9636V13.8164V7.42343C14.4263 8.26461 15.8563 8.76932 17.4545 8.76932V5.53077C15.3726 5.53077 13.6061 4.10076 13.1014 2.16604Z" fill="var(--fill-0, white)"/>
<path id="Vector_3" fill-rule="evenodd" clip-rule="evenodd" d="M12.0499 1.05147C12.0499 1.0725 12.071 1.09353 12.071 1.11456C12.3444 2.14501 12.9752 3.04928 13.8164 3.65914C13.501 3.21752 13.2697 2.71281 13.1225 2.16604C13.0383 1.80854 12.9752 1.43 12.9752 1.05147H12.0499ZM16.4031 5.40459V7.69682C14.7838 7.69682 13.3748 7.19211 12.1341 6.35092V12.7439V12.8911C12.0499 16.1507 9.3161 18.7794 6.03549 18.7794C4.64754 18.7794 3.34371 18.2957 2.33429 17.5176C3.42782 18.9266 5.15225 19.8309 7.08697 19.8309C10.3676 19.8309 13.1014 17.2022 13.1855 13.9426V13.7954V7.42343C14.4263 8.26461 15.8563 8.76932 17.4545 8.76932V5.53077C17.097 5.53077 16.7395 5.48871 16.4031 5.40459ZM6.87667 7.78093V10.2204C6.60329 10.1362 6.3299 10.0942 6.03549 10.0942C4.56342 10.0942 3.36474 11.2929 3.36474 12.7649C3.36474 13.7744 3.93253 14.6366 4.75269 15.0992C4.54239 14.7207 4.41621 14.2791 4.41621 13.8164C4.41621 12.3444 5.6149 11.1457 7.08697 11.1457C7.38138 11.1457 7.65477 11.1877 7.92815 11.2718V7.84402C7.65477 7.80196 7.38138 7.78093 7.08697 7.78093C7.00285 7.78093 6.93976 7.78093 6.87667 7.78093Z" fill="var(--fill-0, #FE2C55)"/>
</g>
</svg>
