<svg preserveAspectRatio="none" width="100%" height="100%" overflow="visible" style="display: block;" viewBox="0 0 17.4543 12.2236" fill="none" xmlns="http://www.w3.org/2000/svg">
<path id="Subtract" d="M8.71875 0C8.77588 1.02904e-05 14.1771 0.00169169 15.5244 0.369141C16.2773 0.572885 16.8656 1.1612 17.0693 1.91406C17.6458 4.23455 17.5122 7.89949 17.0801 10.3096C16.8763 11.0625 16.2881 11.6508 15.5352 11.8545C14.1809 12.2236 8.73514 12.2236 8.7295 12.2236C8.7295 12.2236 3.27882 12.2238 1.92383 11.8545C1.17092 11.6508 0.582643 11.0625 0.378909 10.3096C-0.200877 7.99926 -0.0424493 4.33247 0.36719 1.92578C0.570902 1.17296 1.15933 0.584656 1.91211 0.380859C3.26659 0.0114556 8.71875 0 8.71875 0ZM6.9834 8.73145L11.5059 6.1123L6.9834 3.49219V8.73145Z" fill="var(--fill-0, #FF0000)"/>
</svg>
