<svg preserveAspectRatio="none" width="100%" height="100%" overflow="visible" style="display: block;" viewBox="0 0 16.25 16.25" fill="none" xmlns="http://www.w3.org/2000/svg">
<path id="Vector" d="M11.875 0H4.375C3.21506 0.0012408 2.10298 0.462576 1.28278 1.28278C0.462576 2.10298 0.0012408 3.21506 0 4.375V11.875C0.0012408 13.0349 0.462576 14.147 1.28278 14.9672C2.10298 15.7874 3.21506 16.2488 4.375 16.25H11.875C13.0349 16.2488 14.147 15.7874 14.9672 14.9672C15.7874 14.147 16.2488 13.0349 16.25 11.875V4.375C16.2488 3.21506 15.7874 2.10298 14.9672 1.28278C14.147 0.462576 13.0349 0.0012408 11.875 0ZM15 11.875C15 12.7038 14.6708 13.4987 14.0847 14.0847C13.4987 14.6708 12.7038 15 11.875 15H4.375C3.5462 15 2.75134 14.6708 2.16529 14.0847C1.57924 13.4987 1.25 12.7038 1.25 11.875V4.375C1.25 3.5462 1.57924 2.75134 2.16529 2.16529C2.75134 1.57924 3.5462 1.25 4.375 1.25H11.875C12.7038 1.25 13.4987 1.57924 14.0847 2.16529C14.6708 2.75134 15 3.5462 15 4.375V11.875ZM8.125 4.375C7.38332 4.375 6.6583 4.59493 6.04161 5.00699C5.42493 5.41904 4.94428 6.00471 4.66045 6.68994C4.37662 7.37516 4.30236 8.12916 4.44706 8.85659C4.59175 9.58402 4.9489 10.2522 5.47335 10.7767C5.9978 11.3011 6.66598 11.6583 7.39341 11.8029C8.12084 11.9476 8.87484 11.8734 9.56006 11.5895C10.2453 11.3057 10.831 10.8251 11.243 10.2084C11.6551 9.5917 11.875 8.86668 11.875 8.125C11.874 7.13076 11.4785 6.17753 10.7755 5.47449C10.0725 4.77145 9.11924 4.37603 8.125 4.375ZM8.125 10.625C7.63055 10.625 7.1472 10.4784 6.73607 10.2037C6.32495 9.92897 6.00452 9.53852 5.8153 9.08171C5.62608 8.62489 5.57657 8.12223 5.67304 7.63727C5.7695 7.15232 6.0076 6.70686 6.35723 6.35723C6.70686 6.0076 7.15232 5.7695 7.63727 5.67304C8.12223 5.57657 8.62489 5.62608 9.08171 5.8153C9.53852 6.00452 9.92897 6.32495 10.2037 6.73607C10.4784 7.1472 10.625 7.63055 10.625 8.125C10.625 8.78804 10.3616 9.42393 9.89277 9.89277C9.42393 10.3616 8.78804 10.625 8.125 10.625ZM13.125 4.0625C13.125 4.24792 13.07 4.42918 12.967 4.58335C12.864 4.73752 12.7176 4.85768 12.5463 4.92864C12.375 4.99959 12.1865 5.01816 12.0046 4.98199C11.8227 4.94581 11.6557 4.85652 11.5246 4.72541C11.3935 4.5943 11.3042 4.42725 11.268 4.2454C11.2318 4.06354 11.2504 3.87504 11.3214 3.70373C11.3923 3.53243 11.5125 3.38601 11.6667 3.283C11.8208 3.17998 12.0021 3.125 12.1875 3.125C12.4361 3.125 12.6746 3.22377 12.8504 3.39959C13.0262 3.5754 13.125 3.81386 13.125 4.0625Z" fill="var(--fill-0, white)"/>
</svg>
