<svg preserveAspectRatio="none" width="100%" height="100%" overflow="visible" style="display: block;" viewBox="0 0 54.5443 10.9829" fill="none" xmlns="http://www.w3.org/2000/svg">
<g id="Group">
<g id="Group_2">
<path id="Vector" d="M2.37426e-06 1.39869V10.7731H5.89969V9.37105H1.6124V1.39869H2.37426e-06Z" fill="var(--fill-0, black)" fill-opacity="0.55"/>
<path id="Vector_2" d="M7.59446 3.11014C8.10651 3.11014 8.54008 2.68993 8.54008 2.17733C8.54008 1.66472 8.10651 1.23171 7.59446 1.23171C7.08241 1.23171 6.66164 1.66528 6.66164 2.17733C6.66164 2.68938 7.08186 3.11014 7.59446 3.11014ZM8.38257 3.8849H6.83251V10.7808H8.38257V3.8849Z" fill="var(--fill-0, black)" fill-opacity="0.55"/>
<path id="Vector_3" d="M10.9094 4.31624V3.88378H9.44284C9.44284 4.2372 9.44284 4.57783 9.44284 4.93125V10.7725H10.9884V6.93547C10.9884 5.86184 11.4599 5.01028 12.5468 5.01028C13.6205 5.01028 13.9745 5.87464 13.9745 7.22378V10.7731H15.5201V6.50357C15.5201 4.73534 14.6295 3.67451 13.0578 3.67451C11.997 3.67451 11.3291 4.13312 10.91 4.7615C10.8966 4.7615 10.8966 4.7615 10.8966 4.74814C10.9094 4.60454 10.9094 4.46039 10.9094 4.31624Z" fill="var(--fill-0, black)" fill-opacity="0.55"/>
<path id="Vector_4" d="M28.4638 3.86764H27.0066C27.02 4.28786 27.02 4.68135 27.02 5.11493V10.7731H28.569V7.5171C28.569 6.0995 28.7921 5.20676 30.0394 5.20676C30.1969 5.20676 30.4596 5.22012 30.5776 5.25908V3.73629C30.4858 3.72293 30.2888 3.71013 30.1179 3.71013C29.3303 3.71013 28.6869 4.10419 28.4504 4.7999C28.4638 4.65575 28.4638 4.49769 28.4638 4.34018V3.86764Z" fill="var(--fill-0, black)" fill-opacity="0.55"/>
<path id="Vector_5" d="M35.9302 6.57258H32.283C32.4149 5.47947 33.139 4.88727 34.1397 4.88727C35.166 4.88727 35.8244 5.62417 35.9302 6.57258ZM32.2301 7.70464L37.5231 7.718C37.5231 7.69184 37.5365 7.52042 37.5365 7.28332C37.5231 5.26852 36.3515 3.66225 34.1391 3.66225C32.0325 3.66225 30.65 5.20285 30.65 7.30948C30.65 9.46898 32.0191 10.9829 34.1787 10.9829C35.4955 10.9829 36.4829 10.4296 37.0489 9.56082C37.207 9.33707 37.3255 9.07382 37.4174 8.81056H35.8111C35.5217 9.33707 34.9946 9.66657 34.2176 9.66657C33.0989 9.66657 32.3353 8.83727 32.2301 7.70464Z" fill="var(--fill-0, black)" fill-opacity="0.55"/>
<path id="Vector_6" d="M43.3059 6.57258H39.6587C39.7906 5.47947 40.5147 4.88727 41.5154 4.88727C42.5418 4.88727 43.2002 5.62417 43.3059 6.57258ZM39.6058 7.70464L44.8989 7.718C44.8989 7.69184 44.9122 7.52042 44.9122 7.28332C44.8989 5.26852 43.7273 3.66225 41.5149 3.66225C39.4082 3.66225 38.0257 5.20285 38.0257 7.30948C38.0257 9.46898 39.3949 10.9829 41.5544 10.9829C42.8713 10.9829 43.8586 10.4296 44.4247 9.56082C44.5827 9.33707 44.7013 9.07382 44.7931 8.81056H43.1868C42.8974 9.33707 42.3703 9.66657 41.5939 9.66657C40.4746 9.66657 39.711 8.83727 39.6058 7.70464Z" fill="var(--fill-0, black)" fill-opacity="0.55"/>
<path id="Vector_7" d="M20.8381 10.7758H22.9247C21.8617 9.52911 20.0511 7.46923 19.7361 7.03622C19.7361 7.03622 21.3763 5.22513 22.5836 3.88712H20.6545C19.9198 4.77931 18.1744 6.87927 18.1744 6.87927V1.39367H16.5737V10.7758H18.1744V7.40356C18.1744 7.40356 20.0111 9.72614 20.8381 10.7758Z" fill="var(--fill-0, black)" fill-opacity="0.55"/>
<path id="Vector_8" d="M23.1079 5.14665V8.55844C23.1079 9.97548 24.0657 10.7758 25.4566 10.7758H26.139V9.46343H25.6275C25.0503 9.46343 24.7091 9.13561 24.7091 8.50557V5.14609H26.1395V3.88656H24.7091V2.06991H23.1084V3.88656V5.14665H23.1079Z" fill="var(--fill-0, black)" fill-opacity="0.55"/>
</g>
<path id="Vector_9" d="M50.9171 0H49.3609V2.6376L47.5537 0.790891L46.5118 1.84615L48.398 3.66615H45.7337V5.1433H48.4114L46.5124 7.00281L47.5543 8.04471L50.1396 5.44663L52.7376 8.04471L53.7662 7.00281L51.8672 5.1433H54.5443V3.66671H51.88L53.7662 1.84671L52.7376 0.791448L50.9176 2.63816V0H50.9171ZM49.3609 7.28054V10.802H50.9171V7.28054H49.3609Z" fill="var(--fill-0, #43E660)"/>
</g>
</svg>
