<svg preserveAspectRatio="none" width="100%" height="100%" overflow="visible" style="display: block;" viewBox="0 0 15 15" fill="none" xmlns="http://www.w3.org/2000/svg">
<path id="Vector" opacity="0.2" d="M11.25 0H3.75C2.75544 0 1.80161 0.395088 1.09835 1.09835C0.395088 1.80161 0 2.75544 0 3.75V11.25C0 12.2446 0.395088 13.1984 1.09835 13.9017C1.80161 14.6049 2.75544 15 3.75 15H11.25C12.2446 15 13.1984 14.6049 13.9017 13.9017C14.6049 13.1984 15 12.2446 15 11.25V3.75C15 2.75544 14.6049 1.80161 13.9017 1.09835C13.1984 0.395088 12.2446 0 11.25 0ZM7.5 10.625C6.88193 10.625 6.27775 10.4417 5.76384 10.0983C5.24994 9.75496 4.8494 9.26691 4.61288 8.69589C4.37635 8.12487 4.31447 7.49653 4.43505 6.89034C4.55562 6.28415 4.85325 5.72733 5.29029 5.29029C5.72733 4.85325 6.28415 4.55562 6.89034 4.43505C7.49653 4.31447 8.12487 4.37635 8.69589 4.61288C9.26691 4.8494 9.75496 5.24994 10.0983 5.76384C10.4417 6.27775 10.625 6.88193 10.625 7.5C10.625 8.3288 10.2958 9.12366 9.70971 9.70971C9.12366 10.2958 8.3288 10.625 7.5 10.625Z" fill="var(--fill-0, white)"/>
</svg>
