<svg preserveAspectRatio="none" width="100%" height="100%" overflow="visible" style="display: block;" viewBox="0 0 16.2531 12.5001" fill="none" xmlns="http://www.w3.org/2000/svg">
<path id="Vector" opacity="0.2" d="M15.8273 1.83835C15.7792 1.64564 15.6859 1.46716 15.5551 1.31771C15.4242 1.16826 15.2597 1.05214 15.075 0.978979C12.4594 -0.0272712 8.125 7.26541e-05 8.125 7.26541e-05C8.125 7.26541e-05 3.79063 -0.027271 1.17188 0.982885C0.987213 1.05605 0.822646 1.17217 0.69181 1.32162C0.560974 1.47107 0.467636 1.64955 0.419531 1.84226C0.239844 2.54226 0 3.91335 0 6.25007C0 8.58679 0.239844 9.95789 0.422656 10.6618C0.470999 10.8535 0.564113 11.0309 0.694353 11.1797C0.824593 11.3284 0.988245 11.4441 1.17188 11.5173C3.79063 12.5274 8.125 12.5001 8.125 12.5001C8.125 12.5001 12.4594 12.5274 15.0781 11.5173C15.2623 11.4445 15.4266 11.329 15.5574 11.1802C15.6882 11.0315 15.7818 10.8538 15.8305 10.6618C16.0133 9.95867 16.2531 8.58679 16.2531 6.25007C16.2531 3.91335 16.0102 2.54226 15.8273 1.83835ZM6.875 8.75007V3.75007L10.625 6.25007L6.875 8.75007Z" fill="var(--fill-0, white)"/>
</svg>
