<svg preserveAspectRatio="none" width="100%" height="100%" overflow="visible" style="display: block;" viewBox="0 0 17.5 13.75" fill="none" xmlns="http://www.w3.org/2000/svg">
<path id="Vector" d="M11.5969 6.35469L7.84688 3.85469C7.75273 3.79188 7.64329 3.75581 7.53024 3.75033C7.4172 3.74485 7.30479 3.77017 7.20501 3.82359C7.10523 3.87701 7.02183 3.95652 6.96371 4.05364C6.90559 4.15075 6.87493 4.26182 6.875 4.375V9.375C6.87493 9.48818 6.90559 9.59926 6.96371 9.69637C7.02183 9.79348 7.10523 9.87299 7.20501 9.92641C7.30479 9.97983 7.4172 10.0052 7.53024 9.99968C7.64329 9.9942 7.75273 9.95813 7.84688 9.89532L11.5969 7.39532C11.6826 7.33826 11.7529 7.26091 11.8015 7.17014C11.8502 7.07936 11.8756 6.97798 11.8756 6.875C11.8756 6.77202 11.8502 6.67064 11.8015 6.57987C11.7529 6.48909 11.6826 6.41174 11.5969 6.35469ZM8.125 8.20703V5.54688L10.1234 6.875L8.125 8.20703ZM17.057 2.30625C16.9834 2.01824 16.8424 1.75186 16.6456 1.52909C16.4487 1.30632 16.2017 1.13354 15.925 1.025C13.2469 -0.00937209 8.98438 2.97182e-06 8.75 2.97182e-06C8.51562 2.97182e-06 4.25312 -0.00937209 1.575 1.025C1.29825 1.13354 1.05128 1.30632 0.854449 1.52909C0.657621 1.75186 0.516583 2.01824 0.442969 2.30625C0.240625 3.08594 0 4.51094 0 6.875C0 9.23907 0.240625 10.6641 0.442969 11.4438C0.516472 11.7319 0.657461 11.9984 0.854295 12.2214C1.05113 12.4443 1.29816 12.6172 1.575 12.7258C4.14062 13.7156 8.15625 13.75 8.69844 13.75H8.80156C9.34375 13.75 13.3617 13.7156 15.925 12.7258C16.2018 12.6172 16.4489 12.4443 16.6457 12.2214C16.8425 11.9984 16.9835 11.7319 17.057 11.4438C17.2594 10.6625 17.5 9.23907 17.5 6.875C17.5 4.51094 17.2594 3.08594 17.057 2.30625ZM15.8469 11.1344C15.8231 11.2302 15.7769 11.3191 15.7121 11.3936C15.6473 11.4682 15.5658 11.5263 15.4742 11.5633C13.0016 12.518 8.79609 12.5008 8.74609 12.5008C8.69609 12.5008 4.49844 12.5148 2.02734 11.5633C1.93576 11.5263 1.85424 11.4682 1.78946 11.3936C1.72468 11.3191 1.6785 11.2302 1.65469 11.1344C1.46875 10.4211 1.25 9.10703 1.25 6.875C1.25 4.64297 1.46875 3.32891 1.65312 2.61953C1.67649 2.52311 1.72248 2.43364 1.78728 2.35851C1.85208 2.28339 1.93383 2.22477 2.02578 2.1875C4.49844 1.23594 8.70313 1.25 8.75391 1.25C8.80469 1.25 13.0016 1.23594 15.4727 2.1875C15.5642 2.22447 15.6458 2.28261 15.7105 2.35716C15.7753 2.43171 15.8215 2.52056 15.8453 2.61641C16.0313 3.32891 16.25 4.64297 16.25 6.875C16.25 9.10703 16.0312 10.4211 15.8469 11.1305V11.1344Z" fill="var(--fill-0, white)"/>
</svg>
